<mxfile host="app.diagrams.net" modified="2021-07-12T03:10:02.950Z" agent="5.0 (Macintosh; Intel Mac OS X 10_15_7) AppleWebKit/537.36 (KHTML, like Gecko) Chrome/91.0.4472.114 Safari/537.36" etag="ShFeRgO1FWrePyJjzmQQ" version="14.8.5" type="github">
  <diagram id="ErHu75ElswWQfkoib7nH" name="第 1 页">
    <mxGraphModel dx="865" dy="577" grid="0" gridSize="10" guides="1" tooltips="1" connect="1" arrows="1" fold="1" page="1" pageScale="1" pageWidth="827" pageHeight="1169" math="0" shadow="0">
      <root>
        <mxCell id="0" />
        <mxCell id="1" parent="0" />
        <mxCell id="J02Fz2CLK7PU1R1ziVzv-17" value="内网集群" style="rounded=0;whiteSpace=wrap;html=1;align=left;verticalAlign=top;" vertex="1" parent="1">
          <mxGeometry x="29" y="219" width="781" height="435" as="geometry" />
        </mxCell>
        <mxCell id="J02Fz2CLK7PU1R1ziVzv-14" style="edgeStyle=orthogonalEdgeStyle;curved=1;rounded=0;orthogonalLoop=1;jettySize=auto;html=1;entryX=0.5;entryY=0;entryDx=0;entryDy=0;" edge="1" parent="1" source="J02Fz2CLK7PU1R1ziVzv-1" target="J02Fz2CLK7PU1R1ziVzv-11">
          <mxGeometry relative="1" as="geometry" />
        </mxCell>
        <mxCell id="J02Fz2CLK7PU1R1ziVzv-15" style="edgeStyle=orthogonalEdgeStyle;curved=1;rounded=0;orthogonalLoop=1;jettySize=auto;html=1;" edge="1" parent="1" source="J02Fz2CLK7PU1R1ziVzv-1" target="J02Fz2CLK7PU1R1ziVzv-12">
          <mxGeometry relative="1" as="geometry" />
        </mxCell>
        <mxCell id="J02Fz2CLK7PU1R1ziVzv-1" value="负载均衡(SLB-限定带宽)" style="rounded=0;whiteSpace=wrap;html=1;" vertex="1" parent="1">
          <mxGeometry x="78" y="115" width="278" height="31" as="geometry" />
        </mxCell>
        <mxCell id="J02Fz2CLK7PU1R1ziVzv-9" style="edgeStyle=orthogonalEdgeStyle;rounded=0;orthogonalLoop=1;jettySize=auto;html=1;curved=1;" edge="1" parent="1" source="J02Fz2CLK7PU1R1ziVzv-2" target="J02Fz2CLK7PU1R1ziVzv-1">
          <mxGeometry relative="1" as="geometry" />
        </mxCell>
        <mxCell id="J02Fz2CLK7PU1R1ziVzv-2" value="PC/APP/H5" style="ellipse;shape=cloud;whiteSpace=wrap;html=1;" vertex="1" parent="1">
          <mxGeometry x="157" y="21" width="120" height="62" as="geometry" />
        </mxCell>
        <mxCell id="J02Fz2CLK7PU1R1ziVzv-10" style="edgeStyle=orthogonalEdgeStyle;curved=1;rounded=0;orthogonalLoop=1;jettySize=auto;html=1;entryX=0.5;entryY=0;entryDx=0;entryDy=0;" edge="1" parent="1" source="J02Fz2CLK7PU1R1ziVzv-7" target="J02Fz2CLK7PU1R1ziVzv-8">
          <mxGeometry relative="1" as="geometry" />
        </mxCell>
        <mxCell id="J02Fz2CLK7PU1R1ziVzv-7" value="第三方应用" style="ellipse;shape=cloud;whiteSpace=wrap;html=1;" vertex="1" parent="1">
          <mxGeometry x="558" y="21" width="120" height="62" as="geometry" />
        </mxCell>
        <mxCell id="J02Fz2CLK7PU1R1ziVzv-16" style="edgeStyle=orthogonalEdgeStyle;curved=1;rounded=0;orthogonalLoop=1;jettySize=auto;html=1;entryX=0.5;entryY=0;entryDx=0;entryDy=0;" edge="1" parent="1" source="J02Fz2CLK7PU1R1ziVzv-8" target="J02Fz2CLK7PU1R1ziVzv-13">
          <mxGeometry relative="1" as="geometry" />
        </mxCell>
        <mxCell id="J02Fz2CLK7PU1R1ziVzv-8" value="负载均衡(SLB-按量收费-不限带宽)" style="rounded=0;whiteSpace=wrap;html=1;" vertex="1" parent="1">
          <mxGeometry x="479" y="115" width="278" height="31" as="geometry" />
        </mxCell>
        <mxCell id="J02Fz2CLK7PU1R1ziVzv-11" value="C端网关" style="rounded=0;whiteSpace=wrap;html=1;" vertex="1" parent="1">
          <mxGeometry x="82" y="253" width="107" height="37" as="geometry" />
        </mxCell>
        <mxCell id="J02Fz2CLK7PU1R1ziVzv-12" value="B端网关" style="rounded=0;whiteSpace=wrap;html=1;" vertex="1" parent="1">
          <mxGeometry x="244" y="253" width="107" height="37" as="geometry" />
        </mxCell>
        <mxCell id="J02Fz2CLK7PU1R1ziVzv-13" value="回调网关" style="rounded=0;whiteSpace=wrap;html=1;" vertex="1" parent="1">
          <mxGeometry x="566.5" y="253" width="107" height="37" as="geometry" />
        </mxCell>
        <mxCell id="J02Fz2CLK7PU1R1ziVzv-18" value="" style="rounded=0;whiteSpace=wrap;html=1;align=left;verticalAlign=top;" vertex="1" parent="1">
          <mxGeometry x="82" y="341" width="122" height="194" as="geometry" />
        </mxCell>
        <mxCell id="J02Fz2CLK7PU1R1ziVzv-19" value="Service-A-1" style="rounded=0;whiteSpace=wrap;html=1;align=left;verticalAlign=top;" vertex="1" parent="1">
          <mxGeometry x="94" y="357" width="88" height="44" as="geometry" />
        </mxCell>
        <mxCell id="J02Fz2CLK7PU1R1ziVzv-20" value="Servie-B-1" style="rounded=0;whiteSpace=wrap;html=1;align=left;verticalAlign=top;" vertex="1" parent="1">
          <mxGeometry x="94" y="416" width="88" height="44" as="geometry" />
        </mxCell>
        <mxCell id="J02Fz2CLK7PU1R1ziVzv-21" value="Servie-N-1" style="rounded=0;whiteSpace=wrap;html=1;align=left;verticalAlign=top;" vertex="1" parent="1">
          <mxGeometry x="94" y="475" width="88" height="44" as="geometry" />
        </mxCell>
        <mxCell id="J02Fz2CLK7PU1R1ziVzv-23" value="" style="rounded=0;whiteSpace=wrap;html=1;align=left;verticalAlign=top;" vertex="1" parent="1">
          <mxGeometry x="271" y="341" width="122" height="194" as="geometry" />
        </mxCell>
        <mxCell id="J02Fz2CLK7PU1R1ziVzv-24" value="Service-A-2" style="rounded=0;whiteSpace=wrap;html=1;align=left;verticalAlign=top;" vertex="1" parent="1">
          <mxGeometry x="283" y="357" width="88" height="44" as="geometry" />
        </mxCell>
        <mxCell id="J02Fz2CLK7PU1R1ziVzv-25" value="Servie-B-2" style="rounded=0;whiteSpace=wrap;html=1;align=left;verticalAlign=top;" vertex="1" parent="1">
          <mxGeometry x="283" y="416" width="88" height="44" as="geometry" />
        </mxCell>
        <mxCell id="J02Fz2CLK7PU1R1ziVzv-26" value="Servie-N-2" style="rounded=0;whiteSpace=wrap;html=1;align=left;verticalAlign=top;" vertex="1" parent="1">
          <mxGeometry x="283" y="475" width="88" height="44" as="geometry" />
        </mxCell>
        <mxCell id="J02Fz2CLK7PU1R1ziVzv-27" value="" style="rounded=0;whiteSpace=wrap;html=1;align=left;verticalAlign=top;" vertex="1" parent="1">
          <mxGeometry x="463" y="341" width="122" height="194" as="geometry" />
        </mxCell>
        <mxCell id="J02Fz2CLK7PU1R1ziVzv-28" value="Service-A-3" style="rounded=0;whiteSpace=wrap;html=1;align=left;verticalAlign=top;" vertex="1" parent="1">
          <mxGeometry x="475" y="357" width="88" height="44" as="geometry" />
        </mxCell>
        <mxCell id="J02Fz2CLK7PU1R1ziVzv-29" value="Servie-B-3" style="rounded=0;whiteSpace=wrap;html=1;align=left;verticalAlign=top;" vertex="1" parent="1">
          <mxGeometry x="475" y="416" width="88" height="44" as="geometry" />
        </mxCell>
        <mxCell id="J02Fz2CLK7PU1R1ziVzv-30" value="Servie-N-3" style="rounded=0;whiteSpace=wrap;html=1;align=left;verticalAlign=top;" vertex="1" parent="1">
          <mxGeometry x="475" y="475" width="88" height="44" as="geometry" />
        </mxCell>
        <mxCell id="J02Fz2CLK7PU1R1ziVzv-31" value="" style="rounded=0;whiteSpace=wrap;html=1;align=left;verticalAlign=top;" vertex="1" parent="1">
          <mxGeometry x="649" y="341" width="122" height="194" as="geometry" />
        </mxCell>
        <mxCell id="J02Fz2CLK7PU1R1ziVzv-32" value="Service-A-N" style="rounded=0;whiteSpace=wrap;html=1;align=left;verticalAlign=top;" vertex="1" parent="1">
          <mxGeometry x="661" y="357" width="88" height="44" as="geometry" />
        </mxCell>
        <mxCell id="J02Fz2CLK7PU1R1ziVzv-33" value="Servie-B-N" style="rounded=0;whiteSpace=wrap;html=1;align=left;verticalAlign=top;" vertex="1" parent="1">
          <mxGeometry x="661" y="416" width="88" height="44" as="geometry" />
        </mxCell>
        <mxCell id="J02Fz2CLK7PU1R1ziVzv-34" value="Servie-N-N" style="rounded=0;whiteSpace=wrap;html=1;align=left;verticalAlign=top;" vertex="1" parent="1">
          <mxGeometry x="661" y="475" width="88" height="44" as="geometry" />
        </mxCell>
        <mxCell id="J02Fz2CLK7PU1R1ziVzv-36" style="edgeStyle=orthogonalEdgeStyle;curved=1;rounded=0;orthogonalLoop=1;jettySize=auto;html=1;entryX=0;entryY=0.5;entryDx=0;entryDy=0;exitX=0.5;exitY=1;exitDx=0;exitDy=0;" edge="1" parent="1" source="J02Fz2CLK7PU1R1ziVzv-11" target="J02Fz2CLK7PU1R1ziVzv-20">
          <mxGeometry relative="1" as="geometry">
            <Array as="points">
              <mxPoint x="136" y="314" />
              <mxPoint x="58" y="314" />
              <mxPoint x="58" y="438" />
            </Array>
          </mxGeometry>
        </mxCell>
        <mxCell id="J02Fz2CLK7PU1R1ziVzv-37" style="edgeStyle=orthogonalEdgeStyle;curved=1;rounded=0;orthogonalLoop=1;jettySize=auto;html=1;entryX=0;entryY=0.5;entryDx=0;entryDy=0;exitX=0.5;exitY=1;exitDx=0;exitDy=0;" edge="1" parent="1" source="J02Fz2CLK7PU1R1ziVzv-11" target="J02Fz2CLK7PU1R1ziVzv-21">
          <mxGeometry relative="1" as="geometry">
            <Array as="points">
              <mxPoint x="136" y="309" />
              <mxPoint x="51" y="309" />
              <mxPoint x="51" y="497" />
            </Array>
          </mxGeometry>
        </mxCell>
        <mxCell id="J02Fz2CLK7PU1R1ziVzv-35" style="edgeStyle=orthogonalEdgeStyle;curved=1;rounded=0;orthogonalLoop=1;jettySize=auto;html=1;entryX=0;entryY=0.5;entryDx=0;entryDy=0;" edge="1" parent="1" source="J02Fz2CLK7PU1R1ziVzv-11" target="J02Fz2CLK7PU1R1ziVzv-19">
          <mxGeometry relative="1" as="geometry" />
        </mxCell>
        <mxCell id="J02Fz2CLK7PU1R1ziVzv-38" style="edgeStyle=orthogonalEdgeStyle;curved=1;rounded=0;orthogonalLoop=1;jettySize=auto;html=1;entryX=0;entryY=0.5;entryDx=0;entryDy=0;exitX=0.5;exitY=1;exitDx=0;exitDy=0;" edge="1" parent="1" source="J02Fz2CLK7PU1R1ziVzv-12" target="J02Fz2CLK7PU1R1ziVzv-24">
          <mxGeometry relative="1" as="geometry">
            <Array as="points">
              <mxPoint x="263" y="290" />
              <mxPoint x="263" y="379" />
            </Array>
          </mxGeometry>
        </mxCell>
        <mxCell id="J02Fz2CLK7PU1R1ziVzv-39" style="edgeStyle=orthogonalEdgeStyle;curved=1;rounded=0;orthogonalLoop=1;jettySize=auto;html=1;entryX=0;entryY=0.5;entryDx=0;entryDy=0;exitX=0.5;exitY=1;exitDx=0;exitDy=0;" edge="1" parent="1" source="J02Fz2CLK7PU1R1ziVzv-12" target="J02Fz2CLK7PU1R1ziVzv-25">
          <mxGeometry relative="1" as="geometry">
            <Array as="points">
              <mxPoint x="238" y="290" />
              <mxPoint x="238" y="438" />
            </Array>
          </mxGeometry>
        </mxCell>
        <mxCell id="J02Fz2CLK7PU1R1ziVzv-40" style="edgeStyle=orthogonalEdgeStyle;curved=1;rounded=0;orthogonalLoop=1;jettySize=auto;html=1;entryX=0;entryY=0.5;entryDx=0;entryDy=0;exitX=0.5;exitY=1;exitDx=0;exitDy=0;" edge="1" parent="1" source="J02Fz2CLK7PU1R1ziVzv-12" target="J02Fz2CLK7PU1R1ziVzv-26">
          <mxGeometry relative="1" as="geometry">
            <Array as="points">
              <mxPoint x="247" y="290" />
              <mxPoint x="247" y="497" />
            </Array>
          </mxGeometry>
        </mxCell>
        <mxCell id="J02Fz2CLK7PU1R1ziVzv-41" style="edgeStyle=orthogonalEdgeStyle;curved=1;rounded=0;orthogonalLoop=1;jettySize=auto;html=1;entryX=0;entryY=0.5;entryDx=0;entryDy=0;" edge="1" parent="1" source="J02Fz2CLK7PU1R1ziVzv-12" target="J02Fz2CLK7PU1R1ziVzv-28">
          <mxGeometry relative="1" as="geometry" />
        </mxCell>
        <mxCell id="J02Fz2CLK7PU1R1ziVzv-42" style="edgeStyle=orthogonalEdgeStyle;curved=1;rounded=0;orthogonalLoop=1;jettySize=auto;html=1;entryX=0;entryY=0.5;entryDx=0;entryDy=0;exitX=0.5;exitY=1;exitDx=0;exitDy=0;" edge="1" parent="1" source="J02Fz2CLK7PU1R1ziVzv-13" target="J02Fz2CLK7PU1R1ziVzv-28">
          <mxGeometry relative="1" as="geometry" />
        </mxCell>
        <mxCell id="J02Fz2CLK7PU1R1ziVzv-43" style="edgeStyle=orthogonalEdgeStyle;curved=1;rounded=0;orthogonalLoop=1;jettySize=auto;html=1;entryX=0;entryY=0.5;entryDx=0;entryDy=0;" edge="1" parent="1" source="J02Fz2CLK7PU1R1ziVzv-13" target="J02Fz2CLK7PU1R1ziVzv-33">
          <mxGeometry relative="1" as="geometry" />
        </mxCell>
        <mxCell id="J02Fz2CLK7PU1R1ziVzv-52" style="edgeStyle=orthogonalEdgeStyle;curved=1;rounded=0;orthogonalLoop=1;jettySize=auto;html=1;entryX=0.5;entryY=0;entryDx=0;entryDy=0;" edge="1" parent="1" source="J02Fz2CLK7PU1R1ziVzv-44" target="J02Fz2CLK7PU1R1ziVzv-51">
          <mxGeometry relative="1" as="geometry" />
        </mxCell>
        <mxCell id="J02Fz2CLK7PU1R1ziVzv-44" value="出口网关(多副本)" style="rounded=0;whiteSpace=wrap;html=1;align=center;verticalAlign=middle;" vertex="1" parent="1">
          <mxGeometry x="365" y="588" width="120" height="43" as="geometry" />
        </mxCell>
        <mxCell id="J02Fz2CLK7PU1R1ziVzv-49" style="edgeStyle=orthogonalEdgeStyle;curved=1;rounded=0;orthogonalLoop=1;jettySize=auto;html=1;entryX=0.5;entryY=0;entryDx=0;entryDy=0;exitX=1;exitY=0.5;exitDx=0;exitDy=0;" edge="1" parent="1" source="J02Fz2CLK7PU1R1ziVzv-21" target="J02Fz2CLK7PU1R1ziVzv-44">
          <mxGeometry relative="1" as="geometry">
            <Array as="points">
              <mxPoint x="227" y="497" />
              <mxPoint x="227" y="565" />
              <mxPoint x="425" y="565" />
            </Array>
          </mxGeometry>
        </mxCell>
        <mxCell id="J02Fz2CLK7PU1R1ziVzv-45" style="edgeStyle=orthogonalEdgeStyle;curved=1;rounded=0;orthogonalLoop=1;jettySize=auto;html=1;entryX=0.5;entryY=0;entryDx=0;entryDy=0;exitX=1;exitY=0.5;exitDx=0;exitDy=0;" edge="1" parent="1" source="J02Fz2CLK7PU1R1ziVzv-26" target="J02Fz2CLK7PU1R1ziVzv-44">
          <mxGeometry relative="1" as="geometry" />
        </mxCell>
        <mxCell id="J02Fz2CLK7PU1R1ziVzv-46" style="edgeStyle=orthogonalEdgeStyle;curved=1;rounded=0;orthogonalLoop=1;jettySize=auto;html=1;entryX=0.5;entryY=0;entryDx=0;entryDy=0;exitX=1;exitY=0.5;exitDx=0;exitDy=0;" edge="1" parent="1" source="J02Fz2CLK7PU1R1ziVzv-29" target="J02Fz2CLK7PU1R1ziVzv-44">
          <mxGeometry relative="1" as="geometry">
            <Array as="points">
              <mxPoint x="617" y="438" />
              <mxPoint x="617" y="524" />
              <mxPoint x="425" y="524" />
            </Array>
          </mxGeometry>
        </mxCell>
        <mxCell id="J02Fz2CLK7PU1R1ziVzv-54" style="edgeStyle=orthogonalEdgeStyle;curved=1;rounded=0;orthogonalLoop=1;jettySize=auto;html=1;entryX=0.539;entryY=0.138;entryDx=0;entryDy=0;entryPerimeter=0;" edge="1" parent="1" source="J02Fz2CLK7PU1R1ziVzv-51" target="J02Fz2CLK7PU1R1ziVzv-53">
          <mxGeometry relative="1" as="geometry" />
        </mxCell>
        <mxCell id="J02Fz2CLK7PU1R1ziVzv-51" value="NAT" style="rounded=0;whiteSpace=wrap;html=1;align=center;verticalAlign=middle;" vertex="1" parent="1">
          <mxGeometry x="365" y="679" width="120" height="41" as="geometry" />
        </mxCell>
        <mxCell id="J02Fz2CLK7PU1R1ziVzv-53" value="第三方应用" style="ellipse;shape=cloud;whiteSpace=wrap;html=1;align=center;verticalAlign=middle;" vertex="1" parent="1">
          <mxGeometry x="359.5" y="772" width="120" height="80" as="geometry" />
        </mxCell>
      </root>
    </mxGraphModel>
  </diagram>
</mxfile>
